<svg xmlns="http://www.w3.org/2000/svg" viewBox="0 0 111.23 111.23"><defs><style>.cls-1{fill:#5754f4;}.cls-2{fill:#fff;}</style></defs><g id="Layer_2" data-name="Layer 2"><g id="Layer_1-2" data-name="Layer 1"><circle class="cls-1" cx="55.61" cy="55.61" r="55.61"/><path class="cls-2" d="M36.81,20.37a8.36,8.36,0,0,1,1-3.35A9.74,9.74,0,0,1,39,15.24a9.88,9.88,0,0,1,3.35-2.52A8.49,8.49,0,0,1,44.88,12c.1,0,.22,0,.32,0h.35c.13,0,.26,0,.38,0h.85c.1,0,.22,0,.33,0A9.48,9.48,0,0,1,52,13.79a8.85,8.85,0,0,1,3.3,5,12.59,12.59,0,0,1,.33,2.13c0,.41,0,.83,0,1.24l0,.45c0,.09,0,.19,0,.28q-2.36,16.65-4.73,33.3h0c-.14-.33-.28-.66-.43-1-.33-.78-.67-1.56-1-2.35-.26-.61-.51-1.24-.78-1.85s-.55-1.29-.82-1.93L47,47.26c-.27-.65-.55-1.29-.82-1.93l-1-2.22c-.23-.54-.47-1.08-.71-1.62L43.84,40c-.28-.66-.55-1.31-.83-2l-.78-1.82c-.25-.55-.48-1.11-.72-1.67s-.53-1.25-.79-1.88l-.84-2-.77-1.8c-.28-.67-.57-1.33-.85-2A16.25,16.25,0,0,1,36.93,23c0-.31-.08-.62-.12-.93,0-.13,0-.26,0-.39v-.94C36.82,20.62,36.77,20.49,36.81,20.37Z"/><path class="cls-2" d="M66.35,11.85h1.32c.12.05.25,0,.38,0A9,9,0,0,1,72.89,14a9.64,9.64,0,0,1,3.48,6.41c0,.14,0,.29,0,.43v.95c0,.11,0,.22,0,.33a12.32,12.32,0,0,1-1.06,3.71c-.74,1.71-1.45,3.43-2.17,5.14S71.68,34.42,71,36.15q-1.2,2.84-2.39,5.69Q67.48,44.42,66.39,47L64,52.71l-1.44,3.41a.08.08,0,0,1-.09.07c-.07-.48-.14-1-.22-1.47s-.2-1.07-.25-1.6-.16-1-.22-1.53-.17-1.05-.25-1.57-.1-.8-.17-1.2-.1-.84-.19-1.25-.11-.8-.17-1.2-.13-.81-.19-1.22-.12-.8-.17-1.2-.11-.81-.17-1.21-.13-.84-.2-1.27-.13-.81-.19-1.22-.11-.8-.17-1.2l-.18-1.2-.18-1.25c-.06-.39-.11-.78-.17-1.18s-.15-1.06-.25-1.59-.16-1.07-.24-1.6-.13-.8-.18-1.2-.12-.8-.18-1.2l-.18-1.2c0-.19-.05-.38-.07-.58s0-.18,0-.27V26.67c.05-.09,0-.19,0-.28a3.55,3.55,0,0,1,1-2.27,5.18,5.18,0,0,1,1.41-.89,6.44,6.44,0,0,0,.73-.4c.14-.09.13-.14,0-.25a1.38,1.38,0,0,0-.94-.4,26.72,26.72,0,0,0-3-.05,5,5,0,0,1,0-1.09l0-.4c0-.09,0-.19,0-.27a9.45,9.45,0,0,1,1-3.46A8.56,8.56,0,0,1,59.84,15a8.94,8.94,0,0,1,2.82-2.14,9.26,9.26,0,0,1,3-.89l.35-.06C66.13,11.84,66.24,11.9,66.35,11.85Z"/><path class="cls-2" d="M19.52,34.28V34a8.55,8.55,0,0,1,0-1.24,8.82,8.82,0,0,1,.65-3,9.32,9.32,0,0,1,1.5-2.59,9.68,9.68,0,0,1,5.72-3.27l.51-.08c.08,0,.18,0,.27,0h.24a9.61,9.61,0,0,1,1.2,0l.29,0c.09,0,.19,0,.28,0a10.28,10.28,0,0,1,2,.53,9.47,9.47,0,0,1,3.54,2.46,13.82,13.82,0,0,1,2.32,3.93c.56,1.31,1.14,2.61,1.7,3.92Q40.9,37.26,42,39.86l1.71,3.91L46,49c.69,1.59,1.4,3.18,2.09,4.78l2.48,5.67c0,.06.06.11,0,.19l-1.92-1.32-4.52-3.08-5.77-3.95-4.93-3.38-5.8-4-2.73-1.88c-.66-.46-1.34-.88-1.95-1.4A10.94,10.94,0,0,1,21.43,39a10.44,10.44,0,0,1-1.16-1.92,8.17,8.17,0,0,1-.63-2c0-.18-.05-.36-.08-.53S19.57,34.36,19.52,34.28Z"/><path class="cls-2" d="M93.61,32.54v.3a6.49,6.49,0,0,1,0,1.08,9.32,9.32,0,0,1-2,5.22,13.5,13.5,0,0,1-3,2.62q-4.42,3-8.83,6.08L72.7,52.69l-7.32,5-2.51,1.72s0,.12-.14,0,0-.1,0-.15c.43-1,.85-2,1.26-2.92s.71-1.62,1.06-2.43.57-1.38.87-2.07.6-1.34.88-2,.61-1.39.89-2.09.59-1.34.88-2,.58-1.4.88-2.1c.23-.54.48-1.07.72-1.61s.58-1.38.88-2.07.59-1.35.88-2,.59-1.42.89-2.12c.23-.54.48-1.08.71-1.62.31-.69.6-1.39.9-2.09s.63-1.43.94-2.15a12.29,12.29,0,0,1,1.46-2.5,9.63,9.63,0,0,1,1.55-1.64,8.67,8.67,0,0,1,1.85-1.21,9.14,9.14,0,0,1,2.87-.79c.12-.05.26,0,.38,0h1.1c.13,0,.26,0,.38,0a11.53,11.53,0,0,1,2.59.63,8.65,8.65,0,0,1,3,1.89,9.69,9.69,0,0,1,2.5,3.88,12.35,12.35,0,0,1,.46,2C93.61,32.35,93.56,32.45,93.61,32.54Z"/><path class="cls-2" d="M21.13,62.83A9.88,9.88,0,0,1,17.75,62a9.57,9.57,0,0,1-2.39-1.54,9.37,9.37,0,0,1-2-2.5,8.71,8.71,0,0,1-.92-2.31,7.69,7.69,0,0,1-.24-1.5c0-.09,0-.19,0-.27V52.49c0-.1,0-.22,0-.32a7.93,7.93,0,0,1,.36-2,9.49,9.49,0,0,1,1.21-2.4,9,9,0,0,1,6.17-4l.38-.06c.09,0,.19,0,.27,0H21a2.5,2.5,0,0,1,.67,0h.4c.09,0,.19,0,.27,0a11.45,11.45,0,0,1,3.44,1,16,16,0,0,1,2.26,1.39L36.53,52l6.33,4.41,8.21,5.72,1,.69H21.77C21.56,62.81,21.34,62.87,21.13,62.83Z"/><path class="cls-2" d="M92.91,62.81l-.23,0c-.23,0-.47,0-.7,0H61.37V62.8l1-.73L68,58.15l4.37-3c1.94-1.37,3.88-2.72,5.83-4.07l4.63-3.22c1.13-.79,2.26-1.6,3.41-2.37a9.94,9.94,0,0,1,4.82-1.68,7.23,7.23,0,0,1,1.14,0,9.15,9.15,0,0,1,5.05,2,9.54,9.54,0,0,1,3.46,5.39c.07.33.12.66.17,1,0,.09,0,.19,0,.28l0,.34a9.91,9.91,0,0,1,0,1.09l0,.34c0,.09,0,.19,0,.28v.15c0,.08,0,.18,0,.27a16,16,0,0,1-.52,1.92,10,10,0,0,1-1.88,3.1,8.84,8.84,0,0,1-2.64,2,7.91,7.91,0,0,1-2.23.74l-.38.06C93.11,62.81,93,62.77,92.91,62.81Z"/><path class="cls-2" d="M26.64,73l-.58.87-4.53,6.89c-.2.3-.2.3-.4,0q-2.44-3.7-4.88-7.41l-.18-.25v.37q0,5.72,0,11.43c0,.24-.07.32-.32.31h-3.5c-.19,0-.23,0-.23-.23q0-9.12,0-18.23c0-.2.05-.24.24-.24h4a.31.31,0,0,1,.32.18c1.56,2.52,3.14,5,4.71,7.56l.08.13a6.22,6.22,0,0,0,.51-.79c.39-.64.8-1.28,1.19-1.92.69-1.12,1.4-2.23,2.08-3.36.34-.55.67-1.1,1-1.64a.29.29,0,0,1,.28-.16h4.08c.23,0,.19.12.19.26V79.94c0,1.66,0,3.32,0,5,0,.22,0,.3-.28.29H26.9c-.21,0-.26,0-.26-.27V73Z"/><path class="cls-2" d="M82.19,72.22c-.1.31-.15.63-.27.93a4.59,4.59,0,0,1-2.14,2.27,10.61,10.61,0,0,1,1.31.64A4.1,4.1,0,0,1,83.18,79a.78.78,0,0,0,0,.14c0,.09,0,.19,0,.28v.3a2.89,2.89,0,0,1,0,.72,4.92,4.92,0,0,1-.79,2.37,5,5,0,0,1-2.42,1.79,9.94,9.94,0,0,1-2.15.53c-.09,0-.19,0-.28,0h-.29c-.15,0-.3,0-.45,0H67.66c-.24,0-.28-.07-.28-.28q0-9.08,0-18.14c0-.21,0-.29.28-.29,3,0,6,0,8.93,0h0c.13,0,.27,0,.4,0a7.93,7.93,0,0,1,2.69.74,4.46,4.46,0,0,1,2.44,3.18c0,.23,0,.47.07.71a1.24,1.24,0,0,1,0,.47V72C82.18,72,82.23,72.14,82.19,72.22Z"/><path class="cls-2" d="M52.35,85.21h-4c-.06-.08,0-.17,0-.25V66.76c0-.08,0-.17,0-.25h3.53a.4.4,0,0,1,.38.19l4.39,5.76,3.56,4.69c.19.25.4.49.59.74.06,0,.09,0,.09-.07a1.77,1.77,0,0,0,0-.23V66.81a.51.51,0,0,1,0-.3h3.79c.19,0,.25,0,.25.24q0,9.12,0,18.23c0,.18,0,.23-.23.23H61.6a.37.37,0,0,1-.34-.16l-1.74-2.28-2.05-2.7-2.61-3.46-1.93-2.49-.48-.65c-.13,0-.06.17-.06.25,0,1.73,0,3.46,0,5.19v6C52.38,85,52.41,85.12,52.35,85.21Z"/><path class="cls-2" d="M39.37,69.89H39c-.11,0-.23,0-.34,0a2,2,0,0,0-1.71,1,1.12,1.12,0,0,0-.12.74c0,.09,0,.19,0,.28a1.25,1.25,0,0,0,.74,1,8.25,8.25,0,0,0,2,.75,30.52,30.52,0,0,1,3.71,1.14A5.91,5.91,0,0,1,46,76.92,5,5,0,0,1,46.7,79c0,.12,0,.26,0,.39a2.72,2.72,0,0,0,0,.57c-.05.12,0,.26,0,.39a5.86,5.86,0,0,1-.84,2.46,5.55,5.55,0,0,1-2.68,2.1,8.36,8.36,0,0,1-2.31.54c-.09,0-.19,0-.28,0H39.18c-.14-.06-.3,0-.44,0h-.19c-.09,0-.19,0-.27,0a11.94,11.94,0,0,1-6.16-2.73c-.14-.12-.18-.19,0-.35.71-.84,1.42-1.68,2.11-2.54.14-.17.22-.16.38,0a9,9,0,0,0,3.72,1.92,6.05,6.05,0,0,0,2.93,0,3.46,3.46,0,0,0,.6-.25,1.56,1.56,0,0,0,0-2.72,9,9,0,0,0-1.94-.77c-1.18-.35-2.38-.61-3.53-1a7,7,0,0,1-2-1A4.19,4.19,0,0,1,33,74a4.94,4.94,0,0,1-.28-1.31c-.05-.12,0-.26,0-.38v-.75c0-.12,0-.25,0-.38a4.67,4.67,0,0,1,.8-2.29,5.28,5.28,0,0,1,2.32-2,8.6,8.6,0,0,1,2.45-.64c.09,0,.19,0,.28,0H40c.13,0,.27,0,.39,0h.2c.08,0,.18,0,.27,0a15.36,15.36,0,0,1,2.13.51,11.23,11.23,0,0,1,3,1.63c.12.09.17.16.06.33-.65.91-1.28,1.84-1.91,2.76-.08.11-.14.17-.29.07a11.05,11.05,0,0,0-2.61-1.38A4,4,0,0,0,40.05,70c-.1,0-.18-.1-.29-.06S39.49,69.94,39.37,69.89Z"/><path class="cls-2" d="M83.85,76.61V75.16c0-.11,0-.23,0-.34v-.19c0-.09,0-.19,0-.28a9.83,9.83,0,0,1,1-3.17,9,9,0,0,1,2-2.61,9.08,9.08,0,0,1,4.18-2.11c.44-.09.88-.15,1.32-.22.13,0,.26,0,.39,0h1.46c.14,0,.29,0,.44,0a10.22,10.22,0,0,1,3.85,1.11A9.52,9.52,0,0,1,100.83,69c.1.09.11.14,0,.24-.8.92-1.6,1.83-2.39,2.75-.1.12-.17.12-.29,0a9.55,9.55,0,0,0-1.81-1.28,8.11,8.11,0,0,0-1.71-.61,4.1,4.1,0,0,0-.49-.06c-.16,0-.33,0-.5,0h-.2c-.16,0-.33,0-.49,0a4.9,4.9,0,0,0-2.87,1.23A5.71,5.71,0,0,0,88.2,75v.08c0,.11,0,.22,0,.33a6.61,6.61,0,0,0,0,.89c0,.1,0,.22,0,.33a5.66,5.66,0,0,0,1.16,3,5.21,5.21,0,0,0,3.28,2,1.82,1.82,0,0,0,.33,0c.16.06.33,0,.49,0h.2a5.09,5.09,0,0,0,.55,0,5,5,0,0,0,2.41-.75,9.41,9.41,0,0,0,1.71-1.3c.11-.1.16-.06.24,0L101,82.08c.08.08.08.12,0,.2A9.89,9.89,0,0,1,97,85a10.36,10.36,0,0,1-2.39.49c-.13,0-.26,0-.39,0H92.75c-.12,0-.26,0-.38,0h-.15c-.09,0-.19,0-.27,0a9.35,9.35,0,0,1-3.69-1.32,9.14,9.14,0,0,1-2.64-2.47,9.69,9.69,0,0,1-1.49-3.21A6.18,6.18,0,0,1,83.89,77C83.85,76.84,83.89,76.72,83.85,76.61Z"/><path class="cls-2" d="M48.31,66.51c0,.09,0,.17,0,.26V85c0,.09,0,.17,0,.26s-.06-.16-.06-.24V66.75C48.25,66.66,48.22,66.57,48.31,66.51Z"/><path class="cls-2" d="M52.35,85.21c0-.1,0-.21,0-.31V73.43s0-.07.06,0l0,.06c-.07.09,0,.2,0,.3V84.9C52.41,85,52.46,85.12,52.35,85.21Z"/><path class="cls-2" d="M60.88,66.51a.62.62,0,0,0,0,.3V77.72a.45.45,0,0,1,0,.2c0,.06-.06,0-.08,0s.06-.21.06-.32q0-5.37,0-10.74C60.83,66.72,60.78,66.6,60.88,66.51Z"/><path class="cls-2" d="M55.59,22.18V20.94A3.69,3.69,0,0,1,55.59,22.18Z"/><path class="cls-2" d="M19.51,32.79V34A3.69,3.69,0,0,1,19.51,32.79Z"/><path class="cls-2" d="M29.6,23.78H28.4A3.23,3.23,0,0,1,29.6,23.78Z"/><path class="cls-2" d="M92.21,43.79H91.07A3.12,3.12,0,0,1,92.21,43.79Z"/><path class="cls-2" d="M57.54,21l0,1.09c-.12-.12-.06-.28-.05-.41A1.73,1.73,0,0,1,57.54,21Z"/><path class="cls-2" d="M101,53.88V52.79A2.86,2.86,0,0,1,101,53.88Z"/><path class="cls-2" d="M93.62,33.92V32.84A2.8,2.8,0,0,1,93.62,33.92Z"/><path class="cls-2" d="M83.28,80.43v-.72A1.26,1.26,0,0,1,83.28,80.43Z"/><path class="cls-2" d="M92,62.86a3.26,3.26,0,0,1,.7,0A2.06,2.06,0,0,1,92,62.86Z"/><path class="cls-2" d="M21.7,43.69H21A1.09,1.09,0,0,1,21.7,43.69Z"/><path class="cls-2" d="M21.13,62.83a2.75,2.75,0,0,1,.64,0A1.73,1.73,0,0,1,21.13,62.83Z"/><path class="cls-2" d="M94.21,81.68a1.27,1.27,0,0,1-.55,0C93.84,81.63,94,81.7,94.21,81.68Z"/><path class="cls-2" d="M93,70a1.15,1.15,0,0,1,.49,0A1.17,1.17,0,0,1,93,70Z"/><path class="cls-2" d="M93.46,81.72a1.15,1.15,0,0,1-.49,0A1.17,1.17,0,0,1,93.46,81.72Z"/><path class="cls-2" d="M82.24,71.65v-.47A.55.55,0,0,1,82.24,71.65Z"/><path class="cls-2" d="M93.66,70a1.2,1.2,0,0,1,.5,0A1.05,1.05,0,0,1,93.66,70Z"/><path class="cls-2" d="M38.74,85.43a1.08,1.08,0,0,1,.44,0C39,85.46,38.88,85.52,38.74,85.43Z"/><path class="cls-2" d="M76.9,85.21a1.38,1.38,0,0,1,.45,0C77.21,85.26,77.05,85.2,76.9,85.21Z"/><path class="cls-2" d="M76.41,20.85a1.05,1.05,0,0,1,0-.43C76.46,20.55,76.4,20.7,76.41,20.85Z"/><path class="cls-2" d="M94.81,66.24a1.29,1.29,0,0,1-.44,0C94.52,66.21,94.67,66.15,94.81,66.24Z"/><path class="cls-2" d="M94.21,85.52a1,1,0,0,1,.39,0C94.48,85.56,94.34,85.51,94.21,85.52Z"/><path class="cls-2" d="M92.37,85.48a1,1,0,0,1,.38,0C92.62,85.51,92.49,85.57,92.37,85.48Z"/><path class="cls-2" d="M46.7,80.33a1,1,0,0,1,0-.39C46.73,80.07,46.79,80.2,46.7,80.33Z"/><path class="cls-2" d="M68.05,11.89a1,1,0,0,1-.38,0C67.79,11.86,67.93,11.8,68.05,11.89Z"/><path class="cls-2" d="M46.74,79.37a1.29,1.29,0,0,1,0-.39C46.79,79.1,46.73,79.24,46.74,79.37Z"/><path class="cls-2" d="M92.91,66.2a1,1,0,0,1-.39,0C92.64,66.15,92.78,66.21,92.91,66.2Z"/><path class="cls-2" d="M45.93,11.9a1,1,0,0,1-.38,0C45.67,11.85,45.81,11.91,45.93,11.9Z"/><path class="cls-2" d="M40.35,66.29a.87.87,0,0,1-.39,0C40.09,66.26,40.23,66.2,40.35,66.29Z"/><path class="cls-2" d="M36.77,21.69a.75.75,0,0,1,0,.39C36.73,22,36.78,21.82,36.77,21.69Z"/><path class="cls-2" d="M77,66.55a1.07,1.07,0,0,1-.4,0C76.78,66.52,76.91,66.46,77,66.55Z"/><path class="cls-2" d="M39.37,69.89a.87.87,0,0,1,.39,0C39.63,69.92,39.49,70,39.37,69.89Z"/><path class="cls-2" d="M83.5,23.85a1,1,0,0,1-.38,0C83.24,23.8,83.37,23.86,83.5,23.85Z"/><path class="cls-2" d="M36.81,20.37a.72.72,0,0,1,0,.38C36.78,20.62,36.73,20.49,36.81,20.37Z"/><path class="cls-2" d="M32.71,71.18a1,1,0,0,1,0,.38C32.68,71.44,32.62,71.3,32.71,71.18Z"/><path class="cls-2" d="M85,23.89a1,1,0,0,1-.38,0C84.73,23.86,84.86,23.81,85,23.89Z"/><path class="cls-2" d="M32.67,72.31a1,1,0,0,1,0,.38C32.62,72.57,32.68,72.44,32.67,72.31Z"/><path class="cls-2" d="M66.35,11.85a.75.75,0,0,1-.33,0C66.12,11.81,66.24,11.85,66.35,11.85Z"/><path class="cls-2" d="M83.85,76.61a.8.8,0,0,1,0,.34C83.81,76.84,83.86,76.72,83.85,76.61Z"/><path class="cls-2" d="M88.2,76.61a.75.75,0,0,1,0-.33C88.24,76.38,88.2,76.5,88.2,76.61Z"/><path class="cls-2" d="M88.16,75.39a.75.75,0,0,1,0-.33C88.2,75.17,88.24,75.29,88.16,75.39Z"/><path class="cls-2" d="M83.89,74.82a.78.78,0,0,1,0,.34C83.86,75.05,83.81,74.93,83.89,74.82Z"/><path class="cls-2" d="M76.37,22.13a.63.63,0,0,1,0-.33C76.4,21.91,76.45,22,76.37,22.13Z"/><path class="cls-2" d="M12.18,52.17a.5.5,0,0,1,0,.32C12.15,52.38,12.1,52.27,12.18,52.17Z"/><path class="cls-2" d="M47.11,11.94a.72.72,0,0,1-.33,0C46.89,11.91,47,11.86,47.11,11.94Z"/><path class="cls-2" d="M38.61,69.93a.67.67,0,0,1,.34,0C38.85,70,38.73,69.92,38.61,69.93Z"/><path class="cls-2" d="M45.2,12a.69.69,0,0,1-.32,0C45,11.91,45.09,12,45.2,12Z"/><path class="cls-2" d="M82.19,72.22a.43.43,0,0,1,0-.27C82.22,72,82.26,72.14,82.19,72.22Z"/><path class="cls-2" d="M36.81,71.93a.45.45,0,0,1,0-.28C36.85,71.74,36.81,71.84,36.81,71.93Z"/><path class="cls-2" d="M12.14,53.87a.41.41,0,0,1,0,.27C12.11,54.06,12.15,54,12.14,53.87Z"/><path class="cls-2" d="M57.59,20.37a.42.42,0,0,1,0,.27C57.56,20.55,57.52,20.45,57.59,20.37Z"/><path class="cls-2" d="M83.94,74.35a.45.45,0,0,1,0,.28C83.9,74.53,83.86,74.44,83.94,74.35Z"/><path class="cls-2" d="M55.53,22.91a.53.53,0,0,1,0-.28C55.57,22.73,55.61,22.83,55.53,22.91Z"/><path class="cls-2" d="M40.82,66.34a.43.43,0,0,1-.27,0C40.64,66.31,40.74,66.27,40.82,66.34Z"/><path class="cls-2" d="M28.16,23.8a.51.51,0,0,1-.27,0C28,23.76,28.07,23.8,28.16,23.8Z"/><path class="cls-2" d="M38.56,66.25a.46.46,0,0,1-.28,0C38.36,66.21,38.47,66.26,38.56,66.25Z"/><path class="cls-2" d="M100.93,52.45a.55.55,0,0,1,0-.28C101,52.25,100.93,52.35,100.93,52.45Z"/><path class="cls-2" d="M93.61,32.54a.43.43,0,0,1,0-.27C93.64,32.35,93.6,32.45,93.61,32.54Z"/><path class="cls-2" d="M83.27,79.41a.45.45,0,0,1,0-.28C83.3,79.22,83.26,79.31,83.27,79.41Z"/><path class="cls-2" d="M30.17,23.84a.53.53,0,0,1-.28,0C30,23.8,30.08,23.76,30.17,23.84Z"/><path class="cls-2" d="M92.91,62.81a.55.55,0,0,1,.28,0C93.11,62.85,93,62.81,92.91,62.81Z"/><path class="cls-2" d="M100.84,54.92a.5.5,0,0,1,0-.27C100.88,54.74,100.92,54.84,100.84,54.92Z"/><path class="cls-2" d="M22.37,43.74a.51.51,0,0,1-.27,0C22.19,43.7,22.29,43.66,22.37,43.74Z"/><path class="cls-2" d="M58.27,26.39a.45.45,0,0,1,0,.28C58.24,26.58,58.2,26.48,58.27,26.39Z"/><path class="cls-2" d="M77.64,85.16a.45.45,0,0,1,.28,0C77.83,85.19,77.73,85.15,77.64,85.16Z"/><path class="cls-2" d="M20.57,43.7a.5.5,0,0,1-.27,0C20.38,43.66,20.48,43.7,20.57,43.7Z"/><path class="cls-2" d="M38.28,85.38a.43.43,0,0,1,.27,0C38.46,85.41,38.36,85.45,38.28,85.38Z"/><path class="cls-2" d="M19.52,34.28a.41.41,0,0,1,0,.27C19.49,34.47,19.53,34.37,19.52,34.28Z"/><path class="cls-2" d="M40.59,85.47a.45.45,0,0,1,.28,0C40.79,85.51,40.68,85.46,40.59,85.47Z"/><path class="cls-2" d="M92,85.43a.43.43,0,0,1,.27,0C92.13,85.46,92,85.5,92,85.43Z"/><path class="cls-2" d="M100.89,54.5a.68.68,0,0,1,0-.28C100.93,54.32,101,54.42,100.89,54.5Z"/><path class="cls-2" d="M58.23,27.78a.51.51,0,0,1,0,.27C58.2,28,58.24,27.87,58.23,27.78Z"/><path class="cls-1" d="M74.23,81.6h-2.6c-.18,0-.24,0-.24-.23,0-1.22,0-2.44,0-3.66,0-.12,0-.23.17-.23,1.76,0,3.52,0,5.27,0a3.34,3.34,0,0,1,1.53.44,1.93,1.93,0,0,1,0,3.18,3.24,3.24,0,0,1-1.51.42c-.87,0-1.75,0-2.62,0Z"/><path class="cls-1" d="M74,70.12a19.59,19.59,0,0,1,2.37.07,3.32,3.32,0,0,1,.62.16,1.84,1.84,0,0,1,0,3.44,4.83,4.83,0,0,1-1.81.28H71.62c-.16,0-.23,0-.23-.21,0-1.18,0-2.36,0-3.53,0-.2.08-.22.25-.22Z"/></g></g></svg>